<svg xmlns="http://www.w3.org/2000/svg" viewBox="0 0 1200 630" width="1200" height="630">
  <defs>
    <pattern id="dots" x="0" y="0" width="24" height="24" patternUnits="userSpaceOnUse">
      <circle cx="4" cy="4" r="1.2" fill="#3a2c3a" opacity="0.18"/>
    </pattern>
  </defs>

  <rect width="1200" height="630" fill="#fff8e7"/>
  <rect width="1200" height="630" fill="url(#dots)"/>

  <g transform="translate(120, 180) scale(4)">
    <path d="M 16 20 L 12 8 L 22 16 Z" fill="#c9e6ff" stroke="#3a2c3a" stroke-width="1.5" stroke-linejoin="round"/>
    <path d="M 48 20 L 52 8 L 42 16 Z" fill="#c9e6ff" stroke="#3a2c3a" stroke-width="1.5" stroke-linejoin="round"/>
    <ellipse cx="32" cy="34" rx="20" ry="18" fill="#c9e6ff" stroke="#3a2c3a" stroke-width="2"/>
    <circle cx="24" cy="32" r="2.5" fill="#3a2c3a"/>
    <circle cx="40" cy="32" r="2.5" fill="#3a2c3a"/>
    <circle cx="20" cy="40" r="3" fill="#ffb3d1" opacity="0.7"/>
    <circle cx="44" cy="40" r="3" fill="#ffb3d1" opacity="0.7"/>
    <ellipse cx="32" cy="42" rx="6" ry="4" fill="#fff8e7" stroke="#3a2c3a" stroke-width="1.2"/>
    <ellipse cx="32" cy="40" rx="1.5" ry="1" fill="#3a2c3a"/>
    <path d="M 30 44 Q 32 46 34 44" fill="none" stroke="#3a2c3a" stroke-width="1.2" stroke-linecap="round"/>
  </g>

  <g transform="translate(600, 250)">
    <text x="0" y="0" font-family="Yusei Magic, 'Comic Sans MS', serif" font-size="112" font-weight="400" fill="#3a2c3a">
      urufu<tspan fill="#ff6f9e">labs</tspan><tspan font-family="ui-monospace, monospace" font-size="28" dy="-40" fill="#3a2c3a" opacity="0.6"> ®</tspan>
    </text>
    <text x="0" y="72" font-family="'Klee One', 'Comic Sans MS', cursive" font-size="34" fill="#3a2c3a">
      the composable token launchpad ✿
    </text>
    <text x="0" y="130" font-family="ui-monospace, monospace" font-size="20" fill="#3a2c3a" opacity="0.65">
      3 bases · 20 modules · 5 v4 hooks · 33 curated combos
    </text>
    <text x="0" y="165" font-family="ui-monospace, monospace" font-size="20" fill="#3a2c3a" opacity="0.65">
      bonding curve → uniswap v4, LP locked forever
    </text>
  </g>

  <text x="1080" y="120" font-family="serif" font-size="60" fill="#ff6f9e" opacity="0.55">✿</text>
  <text x="140" y="120" font-family="serif" font-size="52" fill="#8ee0a0" opacity="0.65">❀</text>
  <text x="1080" y="560" font-family="serif" font-size="56" fill="#c9e6ff" opacity="0.85">❁</text>

  <rect x="0" y="0" width="1200" height="8" fill="#3a2c3a"/>
</svg>
